<?xml version="1.0" encoding="UTF-8"?>
<svg width="160" height="40" viewBox="0 0 160 40" fill="none" xmlns="http://www.w3.org/2000/svg">
  <path d="M2 20C2 13.3726 7.37258 8 14 8H26C32.6274 8 38 13.3726 38 20C38 26.6274 32.6274 32 26 32H14C7.37258 32 2 26.6274 2 20Z" fill="#B68B59" fill-opacity="0.2"/>
  <path d="M10 20L16 14M10 20L16 26M10 20H30" stroke="#B68B59" stroke-width="2" stroke-linecap="round" stroke-linejoin="round"/>
  <path d="M49.18 28V12.6H50.72V26.68H57.94V28H49.18ZM60.4992 28V12.6H67.7192V13.92H62.0392V19.48H67.3992V20.8H62.0392V26.68H67.7192V28H60.4992ZM76.5266 28.24C75.1133 28.24 73.8933 27.9067 72.8666 27.24C71.8533 26.5733 71.0799 25.6533 70.5466 24.48C70.0133 23.3067 69.7466 21.96 69.7466 20.44C69.7466 18.8933 70.0133 17.5333 70.5466 16.36C71.0933 15.1867 71.8799 14.2667 72.9066 13.6C73.9333 12.9333 75.1533 12.6 76.5666 12.6C77.5266 12.6 78.3933 12.76 79.1666 13.08C79.9399 13.3867 80.5933 13.8267 81.1266 14.4C81.6733 14.96 82.0666 15.6267 82.3066 16.4H80.6266C80.2799 15.52 79.7333 14.8533 78.9866 14.4C78.2533 13.9467 77.4266 13.72 76.5066 13.72C75.4399 13.72 74.5199 13.9867 73.7466 14.52C72.9733 15.04 72.3733 15.7733 71.9466 16.72C71.5333 17.6533 71.3266 18.76 71.3266 20.04C71.3266 21.3333 71.5333 22.4533 71.9466 23.4C72.3733 24.3467 72.9733 25.08 73.7466 25.6C74.5199 26.12 75.4399 26.38 76.5066 26.38C77.4266 26.38 78.2533 26.16 78.9866 25.72C79.7333 25.2667 80.2799 24.6 80.6266 23.72H82.3066C82.0666 24.4933 81.6733 25.16 81.1266 25.72C80.5933 26.28 79.9399 26.72 79.1666 27.04C78.3933 27.3467 77.5133 27.5067 76.5266 27.52L76.5666 28.24H76.5266ZM84.5906 28V12.6H86.1306V28H84.5906ZM96.1534 28.24C94.8001 28.24 93.6134 27.9067 92.5934 27.24C91.5734 26.5733 90.7867 25.6533 90.2334 24.48C89.6934 23.3067 89.4234 21.96 89.4234 20.44C89.4234 18.8933 89.6934 17.5333 90.2334 16.36C90.7867 15.1867 91.5734 14.2667 92.5934 13.6C93.6134 12.9333 94.8001 12.6 96.1534 12.6C97.5201 12.6 98.7134 12.9333 99.7334 13.6C100.753 14.2667 101.54 15.1867 102.093 16.36C102.647 17.5333 102.923 18.8933 102.923 20.44C102.923 21.96 102.647 23.3067 102.093 24.48C101.54 25.6533 100.753 26.5733 99.7334 27.24C98.7134 27.9067 97.5201 28.24 96.1534 28.24ZM96.1534 26.88C97.2467 26.88 98.1801 26.6 98.9534 26.04C99.7267 25.48 100.313 24.7267 100.713 23.78C101.127 22.8333 101.333 21.72 101.333 20.44C101.333 19.16 101.127 18.0467 100.713 17.1C100.313 16.1533 99.7267 15.4 98.9534 14.84C98.1801 14.28 97.2467 14 96.1534 14C95.0734 14 94.1334 14.28 93.3334 14.84C92.5467 15.4 91.9467 16.1533 91.5334 17.1C91.1334 18.0467 90.9334 19.16 90.9334 20.44C90.9334 21.72 91.1334 22.8333 91.5334 23.78C91.9467 24.7267 92.5467 25.48 93.3334 26.04C94.1334 26.6 95.0734 26.88 96.1534 26.88ZM107.129 28V12.6H108.669V19.48H117.349V12.6H118.889V28H117.349V20.8H108.669V28H107.129ZM128.982 28.24C127.628 28.24 126.442 27.9067 125.422 27.24C124.402 26.5733 123.615 25.6533 123.062 24.48C122.522 23.3067 122.252 21.96 122.252 20.44C122.252 18.8933 122.522 17.5333 123.062 16.36C123.615 15.1867 124.402 14.2667 125.422 13.6C126.442 12.9333 127.628 12.6 128.982 12.6C130.348 12.6 131.542 12.9333 132.562 13.6C133.582 14.2667 134.368 15.1867 134.922 16.36C135.475 17.5333 135.752 18.8933 135.752 20.44C135.752 21.96 135.475 23.3067 134.922 24.48C134.368 25.6533 133.582 26.5733 132.562 27.24C131.542 27.9067 130.348 28.24 128.982 28.24ZM128.982 26.88C130.075 26.88 131.008 26.6 131.782 26.04C132.555 25.48 133.142 24.7267 133.542 23.78C133.955 22.8333 134.162 21.72 134.162 20.44C134.162 19.16 133.955 18.0467 133.542 17.1C133.142 16.1533 132.555 15.4 131.782 14.84C131.008 14.28 130.075 14 128.982 14C127.902 14 126.962 14.28 126.162 14.84C125.375 15.4 124.775 16.1533 124.362 17.1C123.962 18.0467 123.762 19.16 123.762 20.44C123.762 21.72 123.962 22.8333 124.362 23.78C124.775 24.7267 125.375 25.48 126.162 26.04C126.962 26.6 127.902 26.88 128.982 26.88ZM139.958 28V12.6H141.498V26.68H148.718V28H139.958ZM152.236 28V12.6H153.776V19.68L160.916 12.6H162.976L156.776 18.88L163.336 28H161.376L155.856 20.16L153.776 22.24V28H152.236Z" fill="#333333"/>
</svg>
